<?xml version="1.0" encoding="utf-8"?>
<!-- Generator: Adobe Illustrator 25.4.1, SVG Export Plug-In . SVG Version: 6.00 Build 0)  -->
<svg version="1.1" id="Layer_1" xmlns="http://www.w3.org/2000/svg" xmlns:xlink="http://www.w3.org/1999/xlink" x="0px" y="0px"
	 viewBox="0 0 1920 1080" style="enable-background:new 0 0 1920 1080;" xml:space="preserve">
<style type="text/css">
	.st0{fill:#DBF9FF;}
	.st1{fill:#29B6F6;}
	.st2{fill:#0086C3;}
	.st3{fill:#E4F2F4;}
	.st4{fill:#FFFFFF;}
	.st5{fill-rule:evenodd;clip-rule:evenodd;fill:#29B6F6;}
	.st6{fill-rule:evenodd;clip-rule:evenodd;fill:#0086C3;}
</style>
<g>
	<rect x="-62" y="-7.6" class="st0" width="2044.1" height="1212.9"/>
</g>
<g>
	<path class="st1" d="M1958.5,624c-3.2-60.3-96.5-60.3-96.5,3.4v7.1c-13.3-5.9-32.2,0.6-32.2,20.7v10.7c0,3.2,0,3.2,3.2,3.2h173.8
		c3.4,0,3.4,0,3.4-3.2v-10.7C2010.2,619.5,1977.3,608.7,1958.5,624z"/>
</g>
<g>
	<ellipse class="st2" cx="2043.5" cy="1263" rx="1010.2" ry="627"/>
</g>
<g>
	<ellipse class="st1" cx="563.7" cy="1263" rx="1010.2" ry="627"/>
</g>
<g>
	<ellipse class="st2" cx="-292" cy="-286" rx="210.8" ry="130.9"/>
</g>
<g>
	<ellipse class="st1" cx="-600.9" cy="-286" rx="210.8" ry="130.9"/>
</g>
<g>
	<g>
		<path class="st3" d="M521.4,238.9c-1.6-13.6-11.8-24.9-25.1-27.8c-6.9-1.5-13.4-0.8-19.2,1.5c0-0.8,0.1-1.5,0.1-2.3
			c0-35.9-29.1-65-65-65c-35.9,0-65,29.1-65,65c0,0,0,0.1,0,0.1c0,7.7-6,14-13.7,14h-7.4c-7.7,0-13.7-6.3-13.7-14c0,0,0-0.1,0-0.1
			c0-35.9-29.1-65-65-65c-7.6,0-14.8,1.3-21.6,3.7c-12.1-40.5-49.6-70.1-94.1-70.1c-45.8,0-84.2,31.3-95.1,73.7
			c-11.6-9-26.1-14.4-41.9-14.4c-15.4,0-29.5,5.1-41,13.6c-15-11.2-34.7-16.4-55.7-12.1c-23.2,4.8-47,28.1-52.1,51.3
			c-9.9,44.7,23.8,84.3,66.8,84.3h579.6v-0.2C509.9,273.6,523.5,257.6,521.4,238.9z"/>
	</g>
	<path class="st4" d="M509.7,227.2c-1.6-13.6-11.8-24.9-25.1-27.8c-6.9-1.5-13.4-0.8-19.2,1.5c0-0.8,0.1-1.5,0.1-2.3
		c0-35.9-29.1-65-65-65c-35.9,0-65,29.1-65,65c0,0,0,0.1,0,0.1c0,7.7-6,14-13.7,14h-7.4c-7.7,0-13.7-6.3-13.7-14c0,0,0-0.1,0-0.1
		c0-35.9-29.1-65-65-65c-7.6,0-14.8,1.3-21.6,3.7c-12.1-40.5-49.6-70.1-94.1-70.1c-45.8,0-84.2,31.3-95.1,73.7
		c-11.6-9-26.1-14.4-41.9-14.4c-15.4,0-29.5,5.1-41,13.6c-15-11.2-34.7-16.4-55.7-12.1c-23.2,4.8-47,28.1-52.1,51.3
		c-9.9,44.7,23.8,84.3,66.8,84.3h579.6v-0.2C498.2,261.9,511.8,245.9,509.7,227.2z"/>
</g>
<g>
	<g>
		<path class="st3" d="M2178.5,377.3c-1.4-11.9-10.3-21.8-22-24.4c-6-1.3-11.8-0.7-16.8,1.3c0-0.7,0.1-1.4,0.1-2
			c0-31.5-25.5-57-57-57s-57,25.5-57,57c0,0,0,0.1,0,0.1c0,6.7-5.3,12.3-12,12.3h-6.5c-6.7,0-12.1-5.5-12-12.3c0,0,0-0.1,0-0.1
			c0-31.5-25.5-57-57-57c-6.6,0-13,1.1-18.9,3.2c-10.6-35.6-43.6-61.5-82.6-61.5c-40.2,0-73.9,27.5-83.5,64.7
			c-10.2-7.9-22.9-12.6-36.8-12.6c-13.5,0-25.9,4.4-36,11.9c-13.2-9.8-30.5-14.4-48.8-10.6c-20.4,4.2-41.2,24.7-45.7,45
			c-8.7,39.2,20.9,73.9,58.6,73.9h508.6v-0.1C2168.5,407.6,2180.4,393.6,2178.5,377.3z"/>
	</g>
	<path class="st4" d="M2168.3,367c-1.4-11.9-10.3-21.8-22-24.4c-6-1.3-11.8-0.7-16.8,1.3c0-0.7,0.1-1.4,0.1-2c0-31.5-25.5-57-57-57
		c-31.5,0-57,25.5-57,57c0,0,0,0.1,0,0.1c0,6.7-5.3,12.3-12,12.3h-6.5c-6.7,0-12.1-5.5-12-12.3c0,0,0-0.1,0-0.1
		c0-31.5-25.5-57-57-57c-6.6,0-13,1.1-18.9,3.2c-10.6-35.6-43.6-61.5-82.6-61.5c-40.2,0-73.9,27.5-83.5,64.7
		c-10.2-7.9-22.9-12.6-36.8-12.6c-13.5,0-25.9,4.4-36,11.9c-13.2-9.8-30.5-14.4-48.8-10.6c-20.4,4.2-41.2,24.7-45.7,45
		c-8.7,39.2,20.9,73.9,58.6,73.9h508.6v-0.1C2158.2,397.4,2170.2,383.4,2168.3,367z"/>
</g>
<path class="st2" d="M384.6,785.5c-3.8-70.5-112.9-70.5-112.9,3.9v8.3c-15.5-6.9-37.7,0.8-37.7,24.3v12.5c0,3.8,0,3.8,3.8,3.8h203.3
	c3.9,0,3.9,0,3.9-3.8v-12.5C445,780.2,406.6,767.5,384.6,785.5z"/>
<path class="st2" d="M636.1,624c-3.8-70.5-112.9-70.5-112.9,3.9v8.3c-15.5-6.9-37.7,0.8-37.7,24.3V673c0,3.8,0,3.8,3.8,3.8h203.3
	c3.9,0,3.9,0,3.9-3.8v-12.5C696.5,618.7,658.1,606.1,636.1,624z"/>
<g>
	<g>
		<path class="st5" d="M1612.9,669.6c-63.5,21.7-140.9,27.9-185.7,1.5c44.9-15.5,88.2-34.1,125.4-61.9c-27.9,3.1-57.3,4.6-85.1-4.6
			c38.7-21.7,74.3-46.4,102.2-78.9c-17,7.7-40.2,12.4-69.7,10.8c31-21.7,61.9-46.4,88.2-75.8c-20.1,1.5-40.2,3.1-58.8-1.5
			c27.9-17,54.2-38.7,78.9-66.6c-20.1,4.6-37.1,7.7-54.2,9.3c32.5-29.4,61.9-63.5,82-103.7c21.7,40.2,49.5,74.3,83.6,103.7
			c-17-1.5-35.6-4.6-54.2-9.3c23.2,27.9,49.5,49.5,78.9,66.6c-20.1,4.6-40.2,3.1-58.8,1.5c26.3,29.4,55.7,54.2,86.7,75.8
			c-29.4,1.5-51.1-3.1-69.7-10.8c29.4,32.5,65,57.3,103.7,78.9c-29.4,9.3-57.3,7.7-86.7,4.6c38.7,27.9,82,46.4,126.9,61.9
			c-46.4,26.3-122.3,20.1-185.7-1.5v63.5h-48V669.6z"/>
	</g>
</g>
<g transform="translate(0,-952.36216)">
	<g>
		<path class="st6" d="M390.6,1503.6c0,0-2.7,1-3.3,2.5s-8.7,22.8-11.6,25.6c-2.9,2.7-9.4,11.5-12.9,13.7c-3.5,2.2-21.6,6.1-24,6.3
			c-2.4,0.2-5.5,0.9-8.7,0.2c-3.2-0.8-14-4.5-15.9-5.2c-1.9-0.6-26.8-4.2-28.1-4.3c-1.3-0.1-11.4-0.6-13.8-0.6
			c-2.4,0-4.7-0.1-5.8-0.2c-1.1-0.1-5.2-3.6-6.5-3.7c-1.3-0.1-10.8-1.8-12.7-2.2c-1.9-0.4-6.3-1.8-8.9-3.8s-10.1-4.3-11.7-5.8
			c-1.6-1.5-15.8-7.9-19.1-9.2c-3.3-1.2-6.5-2.2-8.3-3.3c-1.8-1.1-1.3-4-1.1-5.5s0.7-4.9,0.7-4.9s2.9-7.6,0-6.9
			c-2.9,0.8-6.4,2.1-7.3,2.9l-1.6,2.8c0,0-6.9,1.6-7,2.9s-0.4,2-2.6,1.7c-2.1-0.2-1.7-0.1-4.8,0.9c-2.7,0.9-3.4,1.2-6,2.6
			c-2.9,1.9-2.6,2-3.7,2.9c0,0-1.7,1.3-1.8,2.6c-0.1,1.3-0.1,3.7-1.5,4.2c-1.4,0.5-11.4,3.8-12.7,4c-1.3,0.3-4.1,0-4.3,1.7
			c-0.2,1.7-0.4,5.4,1.3,6.2c1.6,0.8,4.8,3.8,5.4,3.8c0.7,0.6,9.4,1.2,9.9,1.2c0.5,0,4.7-1.7,5.2-1.5s2.3,3.4-0.4,4.7
			c-2.7,1.3-4,4.3-6.3,4.8c-2.9,0.6-1.5,4.2-0.8,4.6c0.7,0.4,7.1,0.9,9.8,0.1c2.7-0.8,12.3-3.4,14.2-3.8c2-0.3,5,1.5,6.2,2.3
			c1.2,0.8,3.9,2.2,2.7,3.4c-1.2,1.2-1.5,2-1.7,3.4c-0.1,1.4,2.2,6,2.5,7.1c0.3,1.1,1.3,8,1.7,9.2c0.4,1.1,1.7,2.6,1.7,2.6
			s-11.9,1.3-13.6,1.1c-1.7-0.2-7.9,0.9-9.5,1.1c-1.6,0.3-5.4,2.7-5.6,4c-0.3,1.4-0.9,4.4-1.2,5.3c-0.3,0.8-1.7,4-2.8,5.1
			c-1.1,1.1-2.4,1.8-5.4,2.3c-3.1,0.5-9.3,1-11.3,1.1s-2.2-0.5-5,0.8c-2.8,1.2-6.1,3.1-6.5,4.4c-0.5,1.4,1.6,1.4,1.7,2.1
			c0,0.7,3.8,2.7,4.9,2.8c1.1,0.1,8,0.7,8.8,0.5c0.8-0.2,4.3-0.9,6-1.7c1.7-0.8,4-2,5.4-1.5c1.5,0.5,2.9,1.1,3.1,2.1
			c0.2,1,0.7,2.5,2.3,3.6c1.6,1.1,3.4,3.6,4.7,3.8c1.3,0.1,2.1-1,2.1-1s0.2-1.5,0.8-3.5c0.5-2,0.4-2.1,0.9-2.8
			c0.5-0.7,0.7,0,0.4-1.7c-0.3-1.6-0.9-2.1-0.2-2.3c0.7-0.1,9.9-0.6,12.4-0.5c2.5,0,20,1.1,21.4,1.2c1.4,0.1,2,1.5,2.9-1.4
			c0.9-2.9,0.3-3.6,0.7-5.9c0.5-2.2,3-4.4,3-4.4l1.6-0.6c8.5,5,16.8,8.9,23,9.4c6.2,0.4,26.1-2,37.1-5.5c11-3.6,36.3-4.5,37.2-4.5
			c0.9,0.1,8.7,11.7,10.3,13c1.6,1.3,17.3,12.2,20.5,12.3c3.2,0.1,5.7-0.7,5.7-0.7s1.6,1.3,3.2,2.7c1.6,1.5,17,9.2,17.5,10.1
			c0.5,0.9,25,23.2,25.7,24.6c0.7,1.4,7.1,5,7.1,5c2,1.3,2.8,3.9,5.3,2.7c2.5-1.2,1.4-3.8,1.4-5.7c0-1.9-6-5.2-7.2-5.7
			c-1.2-0.6-8.5-8.7-9.8-11c-1.3-2.3-11.3-10.4-11.2-11.7c0.1-1.3,10.2,4.9,12.4,6.2c2.2,1.3,6.2,2.6,6.2,4.8c0,2.2,1.7,6.2,1.7,6.2
			s2.4,1.4,3.3,0.8c1.6-1.1,1.1-4.2,1.3-5.7c0.2-1.5,0.8-3.4,0.5-4.7c-0.3-1.3-4.8-7.2-5.9-7.3l-6.8-2.9l-12.9-8.1
			c0,0-2.3-4.4-6-4.7s-4.6,0.6-6.4-0.7c-1.8-1.3-8.8-8.9-9.2-10.9c-0.4-2-5-15.4-6-16.8c-0.9-1.4-6.6-13.4-9.1-14.1
			c-2.5-0.7-5.5-3-5.5-3s16.8-5.3,23-8.8c6.2-3.4,16.7-16.6,17.9-20.3c1.3-3.8,8-20.1,8.2-22
			C391.4,1508.2,390.6,1503.6,390.6,1503.6L390.6,1503.6z M190.5,1582.6c1.7,0.3,6.8,0.8,7.3,0.9c0.4,0,1.1,3.4-0.2,4
			c-1.4,0.6-20.5,1.8-20.5,1.8s1.3-5.5,2.4-6.4C180.5,1581.8,188.8,1582.3,190.5,1582.6L190.5,1582.6z"/>
	</g>
</g>
<path class="st2" d="M545.2,872.3c0,0,1.9,5.2,0,9.3c-1.9,4.1-8.8,20.5-2.5,32.9c0,0-4.4,20.5-12,23.3c-7.7,2.7-7.1-0.3-9,2.2
	c-1.9,2.5-2.7,4.9-1.9,5.8h11.5c0,0,15.9-8.8,23.3-17.5c0,0,6.3-0.3,7.1,3.3s-1.1,9-3.6,9.6c-2.5,0.6-4.7,4.1-4.1,5.8h7.9
	c0,0,6.1-1.6,7.5-7.9c0,0,1.9-1.4,3.8-1.1c0,0,0.8,6.3,1.6,9c0,0-4.4,1.9-5.8,4.7c-1.4,2.7,5.2,1.6,7.9,1.1
	c2.7-0.6,10.1-1.1,11.2-3.3c0,0,15.1,3.3,22.2-4.4c7.1-7.7,11.2-2.3,20.8-2.1s17.4-4,22.4-3.3c9.5,1.2,12.6-5.7,3.9-8.1
	c-5.7-1.5-9,1.1-14.5,2.8c-5.5,1.6-6.3,2.5-16.4,2.5c-10.1,0-8.1,0.8-9.5-1.8c-1.4-2.7,2.9-19.9-10.1-31s-24.7-13.4-31-15
	c-6.4-1.6-4.5-9.2-3.7-12.3c0.8-3.1,1-6.4,0.2-9.2c0,0,3.3-11.3,1.4-12.5c-1.9-1.2-6.8,3.5-7.8,5.1c0,0-5.5-3.7-11.3-2.3
	c0,0-1.6-4.1-3.9-4.9c-2.3-0.8-2.7,4.7-2.9,9C548,861.7,544.4,867.7,545.2,872.3z"/>
</svg>
