<svg xmlns="http://www.w3.org/2000/svg" viewBox="0 0 1174.66 349.68"><g id="fb5a7727-ebdb-4624-9d78-5685851fffa0" data-name="Layer 2"><g id="ac48be97-582e-416e-8bcf-4f9f8f9b4b86" data-name="Ñëîé 1"><path d="M58.14,192.67l-.7,4.24-.94.94a68.39,68.39,0,0,0-7.18.35,10.67,10.67,0,0,0-5.54,2,19.62,19.62,0,0,0-3.53,4.24c-1.1,1.73-1.8,4.79-2.12,9.18q-.23,3.3-.35,6.12t-.23,6.59q-.12,3.76-.12,9.18v71q0,5.31.12,8.83t.23,6c.08,1.65.2,3.42.35,5.3.32,4.4,1,7.46,2.12,9.18A19.62,19.62,0,0,0,43.78,340a10.67,10.67,0,0,0,5.54,2,71.21,71.21,0,0,0,7.18.35l.94.94.7,4.24-.47.24H.47L0,347.56l.71-4.24,1.17-.94A68.14,68.14,0,0,0,9,342a10.47,10.47,0,0,0,5.41-2A22.49,22.49,0,0,0,18,335.79q1.77-2.58,2.23-9.18c0-1.1,0-2.39.12-3.88s.16-3.34.24-5.54.12-4.86.12-8V235.75c0-3.77,0-7-.12-9.65s-.16-4.95-.24-6.83-.2-3.77-.35-5.65c-.32-4.08-1-7.06-2.12-9a18,18,0,0,0-3.53-4.47,10.47,10.47,0,0,0-5.41-2,65.47,65.47,0,0,0-7.07-.35l-1.17-.94L0,192.67l.47-.24h57.2Z" fill="#4f5b62"/><path d="M110.17,259.05a56.09,56.09,0,0,1,15.77-17q9.65-6.82,24-6.82a47.65,47.65,0,0,1,13.18,1.88A38.94,38.94,0,0,1,175.25,243a33.09,33.09,0,0,1,9.18,10.24A39.86,39.86,0,0,1,189.26,268q.7,6.12.82,12.94t.12,13.66q0,8.47.12,17.06t.12,17.07a46.12,46.12,0,0,0,1.17,7.89,7.15,7.15,0,0,0,2.12,3.64,9.85,9.85,0,0,0,5.77,2.24c2.43.24,4.9.35,7.41.35l.71.94.47,3.3-.47.94a51.82,51.82,0,0,0-8.94-.7H189q-8.94,0-16.24.47l-1.65-2.36a41.62,41.62,0,0,0,1.42-8q.47-4.95.7-8.71.47-9.89.71-19.42t.23-15.89q0-5.42-.35-11.77a59.6,59.6,0,0,0-1.53-11.06q-2.35-11.07-9.65-16.48a27.7,27.7,0,0,0-16.95-5.42,32.39,32.39,0,0,0-14.48,3.3,41.13,41.13,0,0,0-11.41,8.12,41.72,41.72,0,0,0-7.42,10.12c-1.8,3.53-2.71,6.56-2.71,9.07v35.07c0,2.2,0,4.08.12,5.65s.2,3,.36,4.35.31,2.79.47,4.36a56.41,56.41,0,0,0,1.06,7.41,7.57,7.57,0,0,0,2.47,4.12,9.87,9.87,0,0,0,5.29,2.12,49.88,49.88,0,0,0,7,.47l1.17,1.18.48,3.06-.48.94c-1.1,0-2.74-.08-4.94-.23s-4.55-.24-7.06-.24H76l-.23-.47.23-3.3.94-.94c2.51,0,5-.11,7.42-.35a8.77,8.77,0,0,0,5.53-2.24A7.65,7.65,0,0,0,92.39,336a63.15,63.15,0,0,0,1.06-7.3c.16-2.51.31-5.06.47-7.65s.24-6.71.24-12.36V271.41q0-3.41-.12-6c-.08-1.73-.16-3.3-.23-4.71s-.2-2.9-.36-4.47A18.61,18.61,0,0,0,92,251.64a10.28,10.28,0,0,0-1.65-2.71,9.48,9.48,0,0,0-5.88-3.41,44.68,44.68,0,0,0-7.3-.59l-.94-1v-3.35l.94-.87H91.57a66.27,66.27,0,0,0,10.59-.73l8.24-1.21,1.41,1.94a32.81,32.81,0,0,0-1.64,8.46c-.32,3.58-.56,7-.71,10.37Z" fill="#4f5b62"/><path d="M275.18,284.71q9.88,2.12,15.89,5.77a34,34,0,0,1,9.3,7.88,23.06,23.06,0,0,1,4.35,8.59,34.4,34.4,0,0,1,1.06,8.13A31.54,31.54,0,0,1,302.72,329a31.08,31.08,0,0,1-8.83,11,42.71,42.71,0,0,1-14,7.18,61.89,61.89,0,0,1-18.6,2.59A82.41,82.41,0,0,1,239.75,347a81.1,81.1,0,0,1-15.89-5.76l-.47-2.12,3.53-24.25h5.42l.7.94q0,11.3,7.06,17.77T260.58,340A41.4,41.4,0,0,0,274,338.15a23.24,23.24,0,0,0,8.59-4.95,19,19,0,0,0,4.59-6.59,18.18,18.18,0,0,0,1.42-6.83c0-1.41-.08-3-.24-4.82a12.68,12.68,0,0,0-1.88-5.42,19,19,0,0,0-5-5.17,27.87,27.87,0,0,0-9.41-4.12l-22.6-5.65a43.88,43.88,0,0,1-12.71-5,28.5,28.5,0,0,1-7.77-6.71,22.89,22.89,0,0,1-4-7.76,31.62,31.62,0,0,1,1.88-22.13,27.68,27.68,0,0,1,8.36-9.89,38.25,38.25,0,0,1,12.36-5.88,56,56,0,0,1,15.3-2,69.93,69.93,0,0,1,20.36,2.82,79.82,79.82,0,0,1,14.48,5.65l.7,2.12L295.89,264H291l-.94-.7a14,14,0,0,0-2.94-9.06,22.81,22.81,0,0,0-7.18-5.89,33.07,33.07,0,0,0-8.95-3.18,43.3,43.3,0,0,0-8.24-.94q-11.77,0-16.95,5.89a19.46,19.46,0,0,0-5.18,13.18,16.72,16.72,0,0,0,3.65,10.24q3.65,4.83,14.24,7.41Z" fill="#4f5b62"/><path d="M384.64,249.87H354q0,15.3-.12,28.25t-.12,22.71q0,9.78-.12,15.66t-.12,7.3q0,9.18,3.54,12.24a12.16,12.16,0,0,0,8.23,3.06,34.1,34.1,0,0,0,9.3-1.53,39.75,39.75,0,0,0,8.6-3.42l2.11,1.65-2.11,6.59a38,38,0,0,1-12.13,5.53,47.3,47.3,0,0,1-11.89,1.77q-12,0-16.94-6.59t-4.95-16.95q0-2.11.24-8.71T338,301q.23-9.88.47-22.83t.23-28.25H321.79l-1-1.18v-4.47l1-.94,16.94-3.3q0-8.23-.35-16.83t-.82-16.83l1.65-1.41,3.29-.24c1.26-.15,3.3-.47,6.12-.94a19.42,19.42,0,0,0,5.89-1.65l2.11.95a72.37,72.37,0,0,0-1.17,7.5c-.32,2.85-.59,5.89-.83,9.12s-.39,6.54-.47,9.93-.11,6.62-.11,9.7h30.6l1.17.23v9.18Z" fill="#4f5b62"/><path d="M468,345.44a43.2,43.2,0,0,0,1.06-7.77c.23-3.45.58-6.66,1.05-9.65l-.23-.7a58.56,58.56,0,0,1-7.3,8.24,59.32,59.32,0,0,1-9.3,7.18,49.26,49.26,0,0,1-10.82,5.06,39,39,0,0,1-12.13,1.88,30.51,30.51,0,0,1-12.94-2.61,27.93,27.93,0,0,1-9.42-6.87,28.22,28.22,0,0,1-5.65-10,37.31,37.31,0,0,1-1.88-11.85,28.65,28.65,0,0,1,4-15.29A33.84,33.84,0,0,1,415,292.32a56.78,56.78,0,0,1,14.48-6.16,115.4,115.4,0,0,1,16.24-3.44A107.53,107.53,0,0,1,460,281.65h11.77a133.18,133.18,0,0,0-.94-13.86,44,44,0,0,0-1.88-8.42,17.91,17.91,0,0,0-9-10.3,33.73,33.73,0,0,0-15.3-3.2,50.93,50.93,0,0,0-8.12.7,30.19,30.19,0,0,0-8.24,2.58,20,20,0,0,0-6.71,5.28,15.51,15.51,0,0,0-3.29,8.8l-.94.7h-5.18l-2.12-17.15.7-1.43a14.19,14.19,0,0,1,4.95-3.12,78.44,78.44,0,0,1,8.83-3.24,93,93,0,0,1,11.29-2.63,72.37,72.37,0,0,1,12.36-1.08A53.57,53.57,0,0,1,464,237.51a35.42,35.42,0,0,1,12.6,6.71,31.65,31.65,0,0,1,8.36,11.18A37.56,37.56,0,0,1,488,271.06q0,9.88-.12,17.53c-.08,5.11-.2,9.81-.36,14.13s-.27,8.55-.35,12.71S487,324,487,328.73a46.92,46.92,0,0,0,1.18,7.89,6.5,6.5,0,0,0,2.35,3.64,8.77,8.77,0,0,0,5.54,2.24c2.43.24,4.9.35,7.41.35l.94.94.24,3.3-.24.94a56,56,0,0,0-9.18-.7h-9.65q-8.94,0-16.24.47ZM468,320c.47-.78,1-1.73,1.53-2.83a11.68,11.68,0,0,0,1.06-4l1.17-23.54h-2.12a169.91,169.91,0,0,0-18.83,1.06A62.42,62.42,0,0,0,434,294.83a31.87,31.87,0,0,0-12.12,8.48q-4.71,5.42-4.71,13.88,0,9,5.18,14.25t13.42,5.29a31,31,0,0,0,9.88-1.65,46.64,46.64,0,0,0,9.3-4.23,61.59,61.59,0,0,0,7.77-5.42A30.93,30.93,0,0,0,468,320Z" fill="#4f5b62"/><path d="M642.39,261.29q-6.58,11.88-20.24,19.18t-33.9,7.3h-25v59.32H523.05V181.84h65.2q19.77,0,33.43,6.83t20.48,18.83Q649,219.5,649,235A53.19,53.19,0,0,1,642.39,261.29Zm-40-11Q608,244.93,608,235t-5.65-15.3q-5.65-5.42-17.19-5.41H563.3v41.43h21.89Q596.72,255.76,602.38,250.34Z" fill="#0086c3"/><path d="M793.05,291.07H702q.93,12.24,7.88,18.71a24.08,24.08,0,0,0,17.07,6.47q15.06,0,21-12.71h42.84a59.1,59.1,0,0,1-33.42,39.55,69.3,69.3,0,0,1-29,5.88q-19.3,0-34.37-8.24a58.55,58.55,0,0,1-23.54-23.54q-8.48-15.29-8.47-35.78t8.36-35.78a57.84,57.84,0,0,1,23.42-23.54q15.06-8.24,34.6-8.24,19.07,0,33.9,8a57.51,57.51,0,0,1,23.19,22.83q8.36,14.84,8.35,34.61A103,103,0,0,1,793.05,291.07ZM752.56,268.7q0-10.35-7.06-16.48t-17.66-6.12A25.48,25.48,0,0,0,710.78,252q-7,5.88-8.6,16.71Z" fill="#0086c3"/><path d="M888.15,313v34.13H867.67q-21.9,0-34.13-10.71t-12.24-35V249.16h-16V215.74h16v-32h40.25v32h26.36v33.42H861.55v52.73c0,3.93.94,6.75,2.82,8.48s5,2.59,9.42,2.59Z" fill="#0086c3"/><path d="M1089.39,103.78C1071.53,74,1135.69-7.78,1156.53.6c16.17,6.5-3,63.6,14.32,110.27a53.82,53.82,0,0,1,3.18,27.62c-1.91,11.67-9,27.18-17.41,27.51-9.66.38-10.81-19.45-30.75-38.43C1107.73,110.3,1095.77,114.41,1089.39,103.78Z" fill="#0086c3"/><path d="M1003.25,135C997.77,100.74,896,79.39,885.47,99.21c-8.2,15.38,43.23,46.74,60,93.64A53.81,53.81,0,0,0,960.77,216c9,7.71,24.34,15.05,31,9.86,7.64-5.92-4.24-21.84-1.18-49.21C993.4,151.81,1005.2,147.25,1003.25,135Z" fill="#0086c3"/><path d="M1086.17,205.11c-10.31,2.72-23,6.06-25.28,15.44-3.54,14.43,17.88,41.53,35.87,39.2,20.4-2.65,29.62-42.26,20-53.65C1110.5,198.69,1095.73,202.58,1086.17,205.11Z" fill="#0086c3"/></g></g></svg>